# xmcd CD database file
#
# Track frame offsets:
#	150
#	25980
#	44925
#	66873
#	96028
#	114066
#	134303
#	151171
#	171963
#
# Disc length: 2575 seconds
#
# Revision: 0
# Processed by: cddbd v1.5.2PL0 Copyright (c) Steve Scherf et al.
# Submitted via: CDex 1.70beta2
#
DISCID=730a0d09
DTITLE=楠木恭介 - Just Tonight
DYEAR=1985
DGENRE=Jazz
TTITLE0=Sugar Dance
TTITLE1=Get Down
TTITLE2=For Our Love
TTITLE3=Just Tonight
TTITLE4=渚にて ~Close To You
TTITLE5=Love Devotion
TTITLE6=Come To Me Again
TTITLE7=夜を忘れて
TTITLE8=地図なき未来
EXTD=YEAR: 1985
EXTT0=
EXTT1=
EXTT2=
EXTT3=
EXTT4=
EXTT5=
EXTT6=
EXTT7=
EXTT8=
PLAYORDER=
